<?xml version="1.0" encoding="UTF-8" standalone="no"?>
<svg xmlns="http://www.w3.org/2000/svg" version="1.1"
     x="0px" y="0px" width="13" height="13"
     viewBox="-4 -3 50 50" xml:space="preserve">
<path
    d="m 41.949,22.824 c 0,10.742 -8.71,19.453 -19.454,19.453 C 11.751,42.277 3.0419995,33.566 3.0419995,22.824 3.0419995,12.078 11.751,3.37 22.495,3.37 c 10.744,0 19.454,8.708 19.454,19.454"
    style="fill:#EEEEEE"/>
  <path
      d="m 22.474,0 c 12.579,0 22.481,10.134 22.481,22.477 0,12.416 -10.067,22.478 -22.481,22.478 C 10.062,44.956 -4.5097179e-7,34.893 -4.5097179e-7,22.478 -4.5097179e-7,10.061 10.062,0 22.474,0 M 22.424,27.191 16.137,6.329 7.9959995,33.039 h 1.527 c 0,0 1.0270005,-4.646 2.6970005,-7.421 0.909,-1.507 2.31,-2.739 4.183,-2.705 1.319,0.026 2.462,0.747 3.889,2.743 0.858,1.195 2.179,4.244 2.179,4.244 0,0 1.322,-3.045 2.183,-4.244 1.423,-1.996 2.566,-2.717 3.889,-2.743 1.871,-0.034 3.275,1.198 4.18,2.708 1.671,2.771 2.697,7.418 2.697,7.418 h 1.531 l -8.146,-26.71 -6.286,20.862 -0.045,0.037 -0.05,-0.037 z"
      style="fill:#6E6E6E"/>
</svg>