<svg xmlns="http://www.w3.org/2000/svg" width="16" height="16" fill="none" viewBox="0 0 16 16"><circle cx="8" cy="8" r="6.5" fill="#e7effd" stroke="#3574f0"/><path fill="#3574f0" d="M3.87 8.41Q3.87 7.94 3.94 7.47Q4.01 7.01 4.18 6.6Q4.35 6.19 4.67 5.87Q4.98 5.55 5.46 5.37Q5.94 5.19 6.63 5.19Q6.79 5.19 7 5.2Q7.22 5.21 7.36 5.24L7.36 6.17Q7.21 6.14 7.04 6.12Q6.87 6.1 6.7 6.1Q6.02 6.1 5.64 6.31Q5.27 6.53 5.12 6.92Q4.96 7.3 4.94 7.81L4.99 7.81Q5.14 7.54 5.43 7.36Q5.72 7.17 6.18 7.17Q6.9 7.17 7.33 7.63Q7.75 8.08 7.75 8.92Q7.75 9.81 7.24 10.32Q6.74 10.82 5.88 10.82Q5.32 10.82 4.86 10.56Q4.4 10.3 4.14 9.77Q3.87 9.24 3.87 8.41ZM5.86 9.89Q6.2 9.89 6.41 9.66Q6.63 9.43 6.63 8.93Q6.63 8.53 6.44 8.3Q6.25 8.07 5.88 8.07Q5.62 8.07 5.43 8.18Q5.23 8.3 5.13 8.47Q5.02 8.64 5.02 8.83Q5.02 9.08 5.12 9.33Q5.21 9.57 5.4 9.73Q5.58 9.89 5.86 9.89ZM10.21 5.18Q10.68 5.18 11.08 5.32Q11.48 5.47 11.72 5.77Q11.96 6.06 11.96 6.51Q11.96 7 11.68 7.32Q11.4 7.63 10.98 7.84Q11.27 8 11.53 8.2Q11.8 8.41 11.96 8.68Q12.13 8.96 12.13 9.32Q12.13 9.78 11.89 10.12Q11.64 10.45 11.21 10.64Q10.78 10.82 10.21 10.82Q9.28 10.82 8.78 10.43Q8.27 10.04 8.27 9.35Q8.27 8.79 8.58 8.44Q8.89 8.09 9.33 7.87Q8.96 7.64 8.7 7.31Q8.44 6.99 8.44 6.5Q8.44 6.06 8.69 5.77Q8.93 5.48 9.34 5.33Q9.74 5.18 10.21 5.18ZM10.2 6.03Q9.91 6.03 9.72 6.17Q9.54 6.32 9.54 6.59Q9.54 6.87 9.73 7.05Q9.93 7.23 10.21 7.36Q10.46 7.24 10.67 7.06Q10.87 6.89 10.87 6.59Q10.87 6.32 10.68 6.17Q10.49 6.03 10.2 6.03ZM9.35 9.28Q9.35 9.58 9.56 9.77Q9.77 9.97 10.19 9.97Q10.62 9.97 10.84 9.78Q11.05 9.6 11.05 9.29Q11.05 9.08 10.93 8.92Q10.81 8.77 10.62 8.64Q10.44 8.51 10.25 8.4L10.15 8.35Q9.79 8.52 9.57 8.74Q9.35 8.96 9.35 9.28Z"/></svg>